HIERARCHY
ROOT Hips
{
  OFFSET 5.84602e-005 68.8428 3.50346
  CHANNELS 6 Xposition Yposition Zposition Zrotation Xrotation Yrotation
  JOINT Spine
  {
    OFFSET 0 8.597 -4.6522
    CHANNELS 3 Zrotation Xrotation Yrotation
    JOINT Spine1
    {
      OFFSET 0 7.8454 0.4098
      CHANNELS 3 Zrotation Xrotation Yrotation
      JOINT Spine2
      {
        OFFSET 0 9.7078 -2.1609
        CHANNELS 3 Zrotation Xrotation Yrotation
        JOINT Neck
        {
          OFFSET 0 21.8761 -0.4549
          CHANNELS 3 Zrotation Xrotation Yrotation
          JOINT Head
          {
            OFFSET 0 12.3537 3.3602
            CHANNELS 3 Zrotation Xrotation Yrotation
            End Site
            {
              OFFSET 0.0001 18.9506 0.5657
            }
          }
        }
        JOINT LeftShoulder
        {
          OFFSET 2.2086 21.1115 7.2329
          CHANNELS 3 Zrotation Xrotation Yrotation
          JOINT LeftArm
          {
            OFFSET 13.1193 3.0282 -4.8998
            CHANNELS 3 Zrotation Xrotation Yrotation
            JOINT LeftForeArm
            {
              OFFSET 27.4081 -0.0973053 -0.2375
              CHANNELS 3 Zrotation Xrotation Yrotation
              JOINT LeftHand
              {
                OFFSET 22.8641 0.0662994 -0.1369
                CHANNELS 3 Zrotation Xrotation Yrotation
                JOINT LeftHandIndex1
                {
                  OFFSET 8.8614 0.775009 2.4612
                  CHANNELS 3 Zrotation Xrotation Yrotation
                  JOINT LeftHandIndex2
                  {
                    OFFSET 3.3146 -0.808304 0.5841
                    CHANNELS 3 Zrotation Xrotation Yrotation
                    JOINT LeftHandIndex3
                    {
                      OFFSET 2.2628 -0.552002 0.3989
                      CHANNELS 3 Zrotation Xrotation Yrotation
                      End Site
                      {
                        OFFSET 1.6102 -0.4807 0.2612
                      }
                    }
                  }
                }
                JOINT LeftHandMiddle1
                {
                  OFFSET 8.9937 0.895004 0.2143
                  CHANNELS 3 Zrotation Xrotation Yrotation
                  JOINT LeftHandMiddle2
                  {
                    OFFSET 4.0984 0.0113983 -0.0242
                    CHANNELS 3 Zrotation Xrotation Yrotation
                    JOINT LeftHandMiddle3
                    {
                      OFFSET 2.2716 0.00689697 -0.0138001
                      CHANNELS 3 Zrotation Xrotation Yrotation
                      End Site
                      {
                        OFFSET 2.0404 -0.1441 0.0027
                      }
                    }
                  }
                }
                JOINT LeftHandRing1
                {
                  OFFSET 8.5234 0.597198 -2.0164
                  CHANNELS 3 Zrotation Xrotation Yrotation
                  JOINT LeftHandRing2
                  {
                    OFFSET 3.7188 -0.188293 -0.2328
                    CHANNELS 3 Zrotation Xrotation Yrotation
                    JOINT LeftHandRing3
                    {
                      OFFSET 2.1191 -0.106598 -0.1332
                      CHANNELS 3 Zrotation Xrotation Yrotation
                      End Site
                      {
                        OFFSET 1.8737 -0.2304 -0.0886
                      }
                    }
                  }
                }
                JOINT LeftHandPinky1
                {
                  OFFSET 7.9094 -0.601089 -3.4825
                  CHANNELS 3 Zrotation Xrotation Yrotation
                  JOINT LeftHandPinky2
                  {
                    OFFSET 2.2874 -0.477005 -0.6314
                    CHANNELS 3 Zrotation Xrotation Yrotation
                    JOINT LeftHandPinky3
                    {
                      OFFSET 1.6774 -0.349396 -0.4633
                      CHANNELS 3 Zrotation Xrotation Yrotation
                      End Site
                      {
                        OFFSET 1.4888 -0.4091 -0.3416
                      }
                    }
                  }
                }
                JOINT LeftHandThumb1
                {
                  OFFSET 1.833 -1.3875 1.3896
                  CHANNELS 3 Zrotation Xrotation Yrotation
                  JOINT LeftHandThumb2
                  {
                    OFFSET 3.4129 -1.121 2.5732
                    CHANNELS 3 Zrotation Xrotation Yrotation
                    JOINT LeftHandThumb3
                    {
                      OFFSET 2.2474 -0.804199 1.6192
                      CHANNELS 3 Zrotation Xrotation Yrotation
                      End Site
                      {
                        OFFSET 1.6527 -0.5689 1.1317
                      }
                    }
                  }
                }
              }
            }
          }
        }
        JOINT RightShoulder
        {
          OFFSET -2.2086 21.1115 7.2329
          CHANNELS 3 Zrotation Xrotation Yrotation
          JOINT RightArm
          {
            OFFSET -13.1216 3.0287 -4.9007
            CHANNELS 3 Zrotation Xrotation Yrotation
            JOINT RightForeArm
            {
              OFFSET -27.4081 -0.0973053 -0.2375
              CHANNELS 3 Zrotation Xrotation Yrotation
              JOINT RightHand
              {
                OFFSET -22.8641 0.0664063 -0.1369
                CHANNELS 3 Zrotation Xrotation Yrotation
                JOINT RightHandIndex1
                {
                  OFFSET -8.8614 0.774994 2.4612
                  CHANNELS 3 Zrotation Xrotation Yrotation
                  JOINT RightHandIndex2
                  {
                    OFFSET -3.3146 -0.808304 0.5841
                    CHANNELS 3 Zrotation Xrotation Yrotation
                    JOINT RightHandIndex3
                    {
                      OFFSET -2.2628 -0.552002 0.3989
                      CHANNELS 3 Zrotation Xrotation Yrotation
                      End Site
                      {
                        OFFSET -1.6102 -0.4807 0.2612
                      }
                    }
                  }
                }
                JOINT RightHandMiddle1
                {
                  OFFSET -8.9937 0.894989 0.2143
                  CHANNELS 3 Zrotation Xrotation Yrotation
                  JOINT RightHandMiddle2
                  {
                    OFFSET -4.0984 0.0113983 -0.0242
                    CHANNELS 3 Zrotation Xrotation Yrotation
                    JOINT RightHandMiddle3
                    {
                      OFFSET -2.2716 0.00691223 -0.0138001
                      CHANNELS 3 Zrotation Xrotation Yrotation
                      End Site
                      {
                        OFFSET -2.0404 -0.1441 0.0027
                      }
                    }
                  }
                }
                JOINT RightHandRing1
                {
                  OFFSET -8.5234 0.597198 -2.0164
                  CHANNELS 3 Zrotation Xrotation Yrotation
                  JOINT RightHandRing2
                  {
                    OFFSET -3.7188 -0.188309 -0.2328
                    CHANNELS 3 Zrotation Xrotation Yrotation
                    JOINT RightHandRing3
                    {
                      OFFSET -2.1191 -0.106598 -0.1332
                      CHANNELS 3 Zrotation Xrotation Yrotation
                      End Site
                      {
                        OFFSET -1.8737 -0.2304 -0.0886
                      }
                    }
                  }
                }
                JOINT RightHandPinky1
                {
                  OFFSET -7.9094 -0.601105 -3.4825
                  CHANNELS 3 Zrotation Xrotation Yrotation
                  JOINT RightHandPinky2
                  {
                    OFFSET -2.2874 -0.477005 -0.6314
                    CHANNELS 3 Zrotation Xrotation Yrotation
                    JOINT RightHandPinky3
                    {
                      OFFSET -1.6774 -0.349396 -0.4633
                      CHANNELS 3 Zrotation Xrotation Yrotation
                      End Site
                      {
                        OFFSET -1.4888 -0.4091 -0.3416
                      }
                    }
                  }
                }
                JOINT RightHandThumb1
                {
                  OFFSET -1.833 -1.38751 1.3896
                  CHANNELS 3 Zrotation Xrotation Yrotation
                  JOINT RightHandThumb2
                  {
                    OFFSET -3.41299 -1.12099 2.5732
                    CHANNELS 3 Zrotation Xrotation Yrotation
                    JOINT RightHandThumb3
                    {
                      OFFSET -2.24741 -0.804108 1.6192
                      CHANNELS 3 Zrotation Xrotation Yrotation
                      End Site
                      {
                        OFFSET -1.6527 -0.5689 1.1317
                      }
                    }
                  }
                }
              }
            }
          }
        }
      }
    }
  }
  JOINT RightUpLeg
  {
    OFFSET -9.1966 3.8861 -0.7581
    CHANNELS 3 Zrotation Xrotation Yrotation
    JOINT RightLeg
    {
      OFFSET -0.7359 -41.0265 0
      CHANNELS 3 Zrotation Xrotation Yrotation
      JOINT RightFoot
      {
        OFFSET 0 -40.2855 0
        CHANNELS 3 Zrotation Xrotation Yrotation
        JOINT RightToeBase
        {
          OFFSET 0 -5.6122 11.7359
          CHANNELS 3 Zrotation Xrotation Yrotation
          End Site
          {
            OFFSET 0 0 7.8731
          }
        }
      }
    }
  }
  JOINT LeftUpLeg
  {
    OFFSET 9.1965 3.8864 -0.7581
    CHANNELS 3 Zrotation Xrotation Yrotation
    JOINT LeftLeg
    {
      OFFSET 0.7359 -41.0268 0
      CHANNELS 3 Zrotation Xrotation Yrotation
      JOINT LeftFoot
      {
        OFFSET 0 -40.2855 0
        CHANNELS 3 Zrotation Xrotation Yrotation
        JOINT LeftToeBase
        {
          OFFSET 0 -5.6122 11.7359
          CHANNELS 3 Zrotation Xrotation Yrotation
          End Site
          {
            OFFSET 0 0 7.8731
          }
        }
      }
    }
  }
}
MOTION
Frames:	4
Frame Time:	0.0333333
5.84602e-005 68.8428 3.50346 0 0 -0 0 0 -0 0 0 -0 0 0 -0 0 0 -0 0 0 -0 0 0 -0 0 0 -0 0 0 -0 0 0 -0 0 0 -0 0 0 -0 0 0 -0 0 0 -0 -0.0146107 -8.87603e-005 -2.63497e-007 2.99804e-018 -2.42657e-020 -1.42182e-022 0 0 -0 -0.0187562 -0.001176 5.858e-005 5.06224e-018 3.88251e-019 1.21329e-020 0 0 -0 -0.012269 -0.00324817 0.000675346 -1.74678e-018 3.88251e-019 -0 0 0 -0 0 0 -0 0 0 -0 0 0 -0 0 0 -0 0 0 -0 0 0 -0 0 0 -0 0 0 -0 0 0 -0 0 0 -0 0.0149955 -9.10982e-005 2.64101e-007 -9.69331e-018 1.21329e-020 -4.7394e-023 0 0 -0 0.0189956 -0.00119102 -5.96516e-005 -5.41541e-019 0 2.42657e-020 0 0 -0 0.0122698 -0.00324857 -0.000673756 -2.00796e-019 0 -1.94126e-019 0 0 -0 0 0 -0 0 0 -0 3.39842 1.33031 -0.0637918 -5.65207e-008 0.834868 -0.000436188 -3.39935 -2.16518 -0.0642563 -8.89002e-024 -1.18485e-023 -1.48106e-024 -3.39844 1.35642 0.0640283 -3.18788e-007 0.782166 -0.000588827 3.39931 -2.13858 0.0634662 1.1399e-023 0 -0 
0.000223569 69.4008 47.2952 -180 70.0004 -180 -0.224424 12.9015 -0.275491 -0.399084 25.8039 -0.518108 -0.399085 25.8039 -0.518108 -7.40191e-007 -0.400432 -2.19703e-006 -4.68608e-008 -0.35496 -4.417e-007 42.84 -7.13333 -4.15449 27.4497 -57.9499 -22.9787 12.7346 -2.07205 -3.22004 -3.69211 -0.556665 -0.0441683 -1.98785e-015 -1.59028e-014 2.78299e-015 -2.78299e-015 -1.90833e-014 2.5842e-015 -1.59028e-015 -1.27222e-014 1.98785e-015 -1.98785e-015 -1.59028e-014 2.78299e-015 -0.0145307 -8.54347e-005 -6.33911e-006 -3.57812e-015 -3.18055e-015 1.63003e-014 -1.98785e-015 -1.59028e-014 2.78299e-015 -0.018753 -0.00117961 6.44207e-005 -3.57812e-015 0 1.25234e-014 -1.98785e-015 -1.59028e-014 2.78299e-015 -0.0122363 -0.00323968 0.000674338 3.97569e-016 -6.36111e-015 -1.19271e-015 -1.98785e-015 -1.59028e-014 2.78299e-015 -2.78299e-015 -1.90833e-014 2.5842e-015 -1.59028e-015 -1.27222e-014 1.98785e-015 -43.1798 -7.06741 4.16411 -27.5093 -57.9917 22.9249 -12.7319 -2.04647 3.21235 3.76348 -0.791232 -0.280178 -7.95139e-016 0 -3.18055e-015 -9.78147e-008 -3.9769e-006 -3.69672e-007 -9.78147e-008 -3.9769e-006 -3.69672e-007 -7.95139e-016 0 -3.18055e-015 0.0149762 -0.000100111 -2.18199e-006 2.86949e-006 -8.23905e-006 -2.41912e-006 -7.95139e-016 0 -3.18055e-015 0.0190601 -0.0012049 -6.09701e-005 -9.82679e-008 -3.97693e-006 -3.69008e-007 -7.95139e-016 0 -3.18055e-015 0.0122922 -0.00325806 -0.000684014 2.86918e-006 -8.23932e-006 -2.41946e-006 -7.95139e-016 0 -3.18055e-015 -9.78147e-008 -3.9769e-006 -3.69672e-007 -9.78147e-008 -3.9769e-006 -3.69672e-007 -171.264 -70.9533 -168.265 4.07411 3.00262 -1.66654 -4.98835 37.0548 -4.91149 1.16746e-007 -3.19067e-006 -1.79896e-007 171.508 -70.9476 168.482 -3.96626 3.03236 1.60104 4.86176 37.0666 4.97825 -1.1555e-007 -3.19061e-006 1.78588e-007 
0.000223569 69.4008 47.1751 -180 70.0004 -180 -0.225418 12.8129 -0.273398 -0.401956 25.6267 -0.513626 -0.401956 25.6267 -0.513626 3.32192e-006 -0.792295 7.7279e-007 1.39062e-008 -0.70319 3.3408e-007 42.6675 -6.9552 -4.37103 27.4497 -57.9499 -22.9787 12.7346 -2.07205 -3.22003 -3.87333 -0.525684 -0.0425624 2.83506e-006 3.58829e-007 3.89276e-006 3.0071e-006 -4.44655e-006 -1.04587e-005 5.64192e-007 2.11539e-006 -8.71126e-007 2.83506e-006 3.58829e-007 3.89276e-006 -0.0145891 -0.000100563 -7.35798e-006 -1.59028e-015 3.18055e-015 9.93923e-016 2.83506e-006 3.58829e-007 3.89276e-006 -0.0188466 -0.00118864 5.64001e-005 3.97569e-016 -6.36111e-015 -5.96354e-016 2.83506e-006 3.58829e-007 3.89276e-006 -0.012351 -0.00327829 0.000674395 0 0 -7.95139e-016 2.83506e-006 3.58829e-007 3.89276e-006 3.0071e-006 -4.44655e-006 -1.04587e-005 5.64192e-007 2.11539e-006 -8.71126e-007 -42.9897 -6.89227 4.37926 -27.5093 -57.9917 22.9249 -12.7319 -2.04645 3.21236 3.94341 -0.748962 -0.26292 1.59028e-015 3.18055e-015 -1.19271e-015 7.95139e-016 3.18055e-015 -2.18663e-015 3.97569e-016 6.36111e-015 -1.39149e-015 1.59028e-015 3.18055e-015 -1.19271e-015 0.0150309 -9.25392e-005 -2.74771e-006 -3.97569e-016 3.18055e-015 -1.98785e-016 1.59028e-015 3.18055e-015 -1.19271e-015 0.019081 -0.00119671 -6.32569e-005 1.59028e-015 -3.18055e-015 7.95139e-016 1.59028e-015 3.18055e-015 -1.19271e-015 0.0122857 -0.00325181 -0.000678449 7.95139e-016 6.36111e-015 -1.98785e-016 1.59028e-015 3.18055e-015 -1.19271e-015 7.95139e-016 3.18055e-015 -2.18663e-015 3.97569e-016 6.36111e-015 -1.39149e-015 -171.264 -70.9533 -168.265 4.07411 3.00262 -1.66654 -4.98835 37.0548 -4.91149 1.16746e-007 -3.19067e-006 -1.79896e-007 171.508 -70.9476 168.482 -3.96626 3.03236 1.60104 4.86176 37.0666 4.97825 -1.1555e-007 -3.19061e-006 1.78588e-007 
0.000223569 69.4008 47.0551 -180 70.0004 -180 -0.226361 12.7242 -0.270982 -0.404788 25.4493 -0.508494 -0.404788 25.4492 -0.508495 -1.78723e-006 -1.18461 -3.4309e-006 4.0908e-008 -1.0517 6.57612e-007 42.4958 -6.77641 -4.58698 27.4497 -57.9499 -22.9787 12.7346 -2.07205 -3.22004 -4.05458 -0.494679 -0.0408322 -3.97569e-016 -6.36111e-015 1.78906e-015 3.97569e-016 3.18055e-015 1.19271e-015 -3.97569e-016 -9.54166e-015 3.97569e-016 -3.97569e-016 -6.36111e-015 1.78906e-015 -0.0146098 -9.03317e-005 3.56867e-007 5.58135e-007 2.11701e-006 -8.46333e-007 -3.97569e-016 -6.36111e-015 1.78906e-015 -0.018721 -0.00117752 6.04268e-005 7.95139e-016 -2.22639e-014 5.96354e-016 -3.97569e-016 -6.36111e-015 1.78906e-015 -0.0122832 -0.00325561 0.000679571 3.97569e-016 -6.36111e-015 1.98785e-015 -3.97569e-016 -6.36111e-015 1.78906e-015 3.97569e-016 3.18055e-015 1.19271e-015 -3.97569e-016 -9.54166e-015 3.97569e-016 -42.8003 -6.71639 4.59378 -27.5093 -57.9917 22.9249 -12.7319 -2.04645 3.21236 4.12331 -0.706619 -0.245793 1.19271e-015 0 -2.78299e-015 2.38542e-015 -3.18055e-015 -4.17448e-015 1.19271e-015 -9.54166e-015 -1.59028e-015 1.19271e-015 0 -2.78299e-015 0.0149194 -8.84096e-005 5.22576e-007 -1.19271e-015 0 5.96354e-016 1.19271e-015 0 -2.78299e-015 0.0189657 -0.0011862 -5.77414e-005 -7.95139e-016 -6.36111e-015 -3.97569e-016 1.19271e-015 0 -2.78299e-015 0.0121794 -0.00322923 -0.000674283 1.59028e-015 -3.18055e-015 -5.96354e-016 1.19271e-015 0 -2.78299e-015 2.38542e-015 -3.18055e-015 -4.17448e-015 1.19271e-015 -9.54166e-015 -1.59028e-015 -171.264 -70.9533 -168.265 4.07411 3.00262 -1.66654 -4.98835 37.0548 -4.91149 1.16746e-007 -3.19067e-006 -1.79896e-007 171.508 -70.9476 168.482 -3.96627 3.03236 1.60104 4.86176 37.0666 4.97826 -9.47529e-007 5.12111e-008 9.9071e-008 
